<?xml version="1.0" encoding="UTF-8"?>
<svg width="174px" height="30px" viewBox="0 0 174 30" version="1.1" xmlns="http://www.w3.org/2000/svg" xmlns:xlink="http://www.w3.org/1999/xlink">
    <!-- Generator: Sketch 53.2 (72643) - https://sketchapp.com -->
    <title>Group 21</title>
    <desc>Created with Sketch.</desc>
    <defs>
        <path d="M18.508,0.59 L15.144,0.59 C13.24,0.59 11.78,1.073 10.762,2.042 L10.762,2.042 C9.745,3.011 9.045,4.6 8.661,6.81 L8.661,6.81 L8.349,8.615 L7.934,11.176 L5.166,30 L7.923,30 L10.746,11.176 L11.107,8.615 L11.451,6.564 C11.625,5.382 12.003,4.499 12.584,3.913 L12.584,3.913 C13.163,3.329 13.952,3.035 14.947,3.035 L14.947,3.035 L18.464,3.035 C18.707,3.035 18.895,3.252 18.858,3.493 L18.858,3.493 L18.278,7.335 L21.265,7.335 L22.363,0.055 C22.363,0.055 20.361,0.59 18.508,0.59 L18.508,0.59 Z M50.334,5.431 L49.859,8.615 L45.461,8.615 L45.904,5.431 L42.917,5.431 L42.441,8.615 L12.66,8.615 L12.299,11.176 L26.564,11.176 C26.804,11.176 26.926,11.457 26.766,11.635 L26.766,11.635 C26.59,11.833 26.418,12.04 26.25,12.259 L26.25,12.259 C25.627,13.09 25.148,13.998 24.815,14.984 L24.815,14.984 C24.481,15.968 24.314,16.975 24.314,18.003 L24.314,18.003 C24.314,19.753 24.803,21.203 25.783,22.352 L25.783,22.352 C26.762,23.501 27.986,24.075 29.451,24.075 L29.451,24.075 C30.217,24.075 30.928,23.898 31.585,23.542 L31.585,23.542 C32.241,23.187 32.865,22.637 33.456,21.893 L33.456,21.893 L33.177,23.779 L36.033,23.779 L37.838,11.517 C37.866,11.32 38.035,11.176 38.233,11.176 L38.233,11.176 L41.663,11.176 C41.917,11.176 42.107,11.41 42.053,11.658 L42.053,11.658 C42.053,11.658 41.132,18.517 41.078,18.922 L41.078,18.922 C41.023,19.327 40.995,19.693 40.995,20.022 L40.995,20.022 C40.995,21.247 41.376,22.235 42.136,22.984 L42.136,22.984 C42.896,23.733 43.885,24.108 45.098,24.108 L45.098,24.108 C45.601,24.108 46.212,24.05 46.782,23.892 L46.782,23.892 C47.35,23.732 48.822,23.225 49.469,22.896 L49.469,22.896 L49.464,22.889 C49.494,22.92 49.523,22.953 49.553,22.984 L49.553,22.984 C50.314,23.733 51.302,24.108 52.516,24.108 L52.516,24.108 C53.019,24.108 53.555,24.029 54.125,23.87 L54.125,23.87 C54.693,23.712 55.301,23.468 55.946,23.14 L55.946,23.14 L55.946,20.481 C55.476,20.777 55.024,20.998 54.592,21.146 L54.592,21.146 C54.16,21.293 53.763,21.367 53.402,21.367 L53.402,21.367 C52.768,21.367 52.294,21.212 51.983,20.899 L51.983,20.899 C51.671,20.588 51.514,20.114 51.514,19.48 L51.514,19.48 C51.514,19.229 51.537,18.933 51.581,18.594 L51.581,18.594 C51.625,18.255 52.52,11.491 52.52,11.491 L52.52,11.491 C52.56,11.307 52.722,11.176 52.911,11.176 L52.911,11.176 L64.351,11.176 L64.657,8.615 L52.879,8.615 L53.322,5.431 L50.334,5.431 Z M44.565,20.899 C44.254,20.588 44.097,20.114 44.097,19.48 L44.097,19.48 C44.097,19.229 44.119,18.933 44.163,18.594 L44.163,18.594 C44.207,18.255 45.103,11.491 45.103,11.491 L45.103,11.491 C45.142,11.307 45.304,11.176 45.493,11.176 L45.493,11.176 L49.08,11.176 C49.334,11.176 49.524,11.41 49.471,11.658 L49.471,11.658 C49.471,11.658 48.55,18.517 48.496,18.922 L48.496,18.922 C48.44,19.327 48.413,19.693 48.413,20.022 L48.413,20.022 C48.413,20.198 48.424,20.368 48.439,20.535 L48.439,20.535 C48.001,20.802 47.579,21.008 47.174,21.146 L47.174,21.146 C46.742,21.293 46.346,21.367 45.984,21.367 L45.984,21.367 C45.35,21.367 44.877,21.212 44.565,20.899 L44.565,20.899 Z M28.245,20.572 C27.703,19.844 27.432,18.884 27.432,17.691 L27.432,17.691 C27.432,15.754 28.067,14.168 29.336,12.932 L29.336,12.932 C30.605,11.696 32.247,11.176 34.259,11.176 L34.259,11.176 L34.565,11.176 C34.807,11.176 34.991,11.389 34.957,11.627 L34.957,11.627 L33.882,19.103 C33.379,19.956 32.832,20.596 32.241,21.023 L32.241,21.023 C31.65,21.449 31.021,21.663 30.354,21.663 L30.354,21.663 C29.489,21.663 28.786,21.299 28.245,20.572 L28.245,20.572 Z M0.378,8.615 L0,11.176 L6.377,11.176 L6.772,8.615 L0.378,8.615 Z M17.503,12.469 L15.799,23.779 L18.785,23.779 L20.491,12.469 L17.503,12.469 Z" id="path-1"></path>
        <linearGradient x1="14.8516032%" y1="63.9029029%" x2="77.3940065%" y2="34.9372493%" id="linearGradient-3">
            <stop stop-color="#BD0167" offset="0%"></stop>
            <stop stop-color="#E25449" offset="100%"></stop>
        </linearGradient>
    </defs>
    <g id="Page-1" stroke="none" stroke-width="1" fill="none" fill-rule="evenodd">
        <g id="lp" transform="translate(-101.000000, -610.000000)">
            <g id="Group" transform="translate(68.000000, 502.000000)">
                <g id="Group-21" transform="translate(33.000000, 107.000000)">
                    <g id="Group-3" transform="translate(0.000000, 0.945200)">
                        <mask id="mask-2" fill="white">
                            <use xlink:href="#path-1"></use>
                        </mask>
                        <g id="Clip-2"></g>
                        <path d="M18.508,0.59 L15.144,0.59 C13.24,0.59 11.78,1.073 10.762,2.042 L10.762,2.042 C9.745,3.011 9.045,4.6 8.661,6.81 L8.661,6.81 L8.349,8.615 L7.934,11.176 L5.166,30 L7.923,30 L10.746,11.176 L11.107,8.615 L11.451,6.564 C11.625,5.382 12.003,4.499 12.584,3.913 L12.584,3.913 C13.163,3.329 13.952,3.035 14.947,3.035 L14.947,3.035 L18.464,3.035 C18.707,3.035 18.895,3.252 18.858,3.493 L18.858,3.493 L18.278,7.335 L21.265,7.335 L22.363,0.055 C22.363,0.055 20.361,0.59 18.508,0.59 L18.508,0.59 Z M50.334,5.431 L49.859,8.615 L45.461,8.615 L45.904,5.431 L42.917,5.431 L42.441,8.615 L12.66,8.615 L12.299,11.176 L26.564,11.176 C26.804,11.176 26.926,11.457 26.766,11.635 L26.766,11.635 C26.59,11.833 26.418,12.04 26.25,12.259 L26.25,12.259 C25.627,13.09 25.148,13.998 24.815,14.984 L24.815,14.984 C24.481,15.968 24.314,16.975 24.314,18.003 L24.314,18.003 C24.314,19.753 24.803,21.203 25.783,22.352 L25.783,22.352 C26.762,23.501 27.986,24.075 29.451,24.075 L29.451,24.075 C30.217,24.075 30.928,23.898 31.585,23.542 L31.585,23.542 C32.241,23.187 32.865,22.637 33.456,21.893 L33.456,21.893 L33.177,23.779 L36.033,23.779 L37.838,11.517 C37.866,11.32 38.035,11.176 38.233,11.176 L38.233,11.176 L41.663,11.176 C41.917,11.176 42.107,11.41 42.053,11.658 L42.053,11.658 C42.053,11.658 41.132,18.517 41.078,18.922 L41.078,18.922 C41.023,19.327 40.995,19.693 40.995,20.022 L40.995,20.022 C40.995,21.247 41.376,22.235 42.136,22.984 L42.136,22.984 C42.896,23.733 43.885,24.108 45.098,24.108 L45.098,24.108 C45.601,24.108 46.212,24.05 46.782,23.892 L46.782,23.892 C47.35,23.732 48.822,23.225 49.469,22.896 L49.469,22.896 L49.464,22.889 C49.494,22.92 49.523,22.953 49.553,22.984 L49.553,22.984 C50.314,23.733 51.302,24.108 52.516,24.108 L52.516,24.108 C53.019,24.108 53.555,24.029 54.125,23.87 L54.125,23.87 C54.693,23.712 55.301,23.468 55.946,23.14 L55.946,23.14 L55.946,20.481 C55.476,20.777 55.024,20.998 54.592,21.146 L54.592,21.146 C54.16,21.293 53.763,21.367 53.402,21.367 L53.402,21.367 C52.768,21.367 52.294,21.212 51.983,20.899 L51.983,20.899 C51.671,20.588 51.514,20.114 51.514,19.48 L51.514,19.48 C51.514,19.229 51.537,18.933 51.581,18.594 L51.581,18.594 C51.625,18.255 52.52,11.491 52.52,11.491 L52.52,11.491 C52.56,11.307 52.722,11.176 52.911,11.176 L52.911,11.176 L64.351,11.176 L64.657,8.615 L52.879,8.615 L53.322,5.431 L50.334,5.431 Z M44.565,20.899 C44.254,20.588 44.097,20.114 44.097,19.48 L44.097,19.48 C44.097,19.229 44.119,18.933 44.163,18.594 L44.163,18.594 C44.207,18.255 45.103,11.491 45.103,11.491 L45.103,11.491 C45.142,11.307 45.304,11.176 45.493,11.176 L45.493,11.176 L49.08,11.176 C49.334,11.176 49.524,11.41 49.471,11.658 L49.471,11.658 C49.471,11.658 48.55,18.517 48.496,18.922 L48.496,18.922 C48.44,19.327 48.413,19.693 48.413,20.022 L48.413,20.022 C48.413,20.198 48.424,20.368 48.439,20.535 L48.439,20.535 C48.001,20.802 47.579,21.008 47.174,21.146 L47.174,21.146 C46.742,21.293 46.346,21.367 45.984,21.367 L45.984,21.367 C45.35,21.367 44.877,21.212 44.565,20.899 L44.565,20.899 Z M28.245,20.572 C27.703,19.844 27.432,18.884 27.432,17.691 L27.432,17.691 C27.432,15.754 28.067,14.168 29.336,12.932 L29.336,12.932 C30.605,11.696 32.247,11.176 34.259,11.176 L34.259,11.176 L34.565,11.176 C34.807,11.176 34.991,11.389 34.957,11.627 L34.957,11.627 L33.882,19.103 C33.379,19.956 32.832,20.596 32.241,21.023 L32.241,21.023 C31.65,21.449 31.021,21.663 30.354,21.663 L30.354,21.663 C29.489,21.663 28.786,21.299 28.245,20.572 L28.245,20.572 Z M0.378,8.615 L0,11.176 L6.377,11.176 L6.772,8.615 L0.378,8.615 Z M17.503,12.469 L15.799,23.779 L18.785,23.779 L20.491,12.469 L17.503,12.469 Z" id="Fill-1" fill="url(#linearGradient-3)" mask="url(#mask-2)"></path>
                    </g>
                    <g id="Group-20" transform="translate(67.000000, 8.945200)" fill="#FFFFFF">
                        <path d="M11.2732,1.6252 L10.8002,4.5142 C10.6682,4.4082 10.4262,4.2642 10.0762,4.0782 C9.7252,3.8932 9.3292,3.7282 8.8832,3.5842 C8.4392,3.4402 7.9892,3.3692 7.5342,3.3692 C7.0572,3.3692 6.6902,3.4982 6.4312,3.7582 C6.1712,4.0172 6.0432,4.3172 6.0432,4.6612 C6.0432,4.9622 6.1292,5.2332 6.3052,5.4752 C6.4802,5.7172 6.9312,6.1352 7.6602,6.7302 C8.7392,7.5922 9.4802,8.3432 9.8862,8.9832 C10.2932,9.6242 10.4962,10.3512 10.4962,11.1632 C10.4962,11.8282 10.3422,12.4932 10.0342,13.1592 C9.7252,13.8242 9.1992,14.3852 8.4532,14.8402 C7.7082,15.2952 6.7182,15.5222 5.4862,15.5222 C4.5682,15.5222 3.6972,15.3952 2.8702,15.1392 C2.0442,14.8842 1.3682,14.5912 0.8422,14.2622 L1.2942,11.3102 C2.8002,12.2552 4.0252,12.7292 4.9712,12.7292 C5.5662,12.7292 5.9882,12.5632 6.2372,12.2342 C6.4852,11.9052 6.6102,11.5482 6.6102,11.1632 C6.6102,10.7362 6.4742,10.3632 6.2062,10.0442 C5.9352,9.7262 5.2962,9.1072 4.2882,8.1902 C3.6852,7.6442 3.2242,7.1592 2.9022,6.7352 C2.5802,6.3122 2.3752,5.9402 2.2872,5.6222 C2.2002,5.3042 2.1562,4.9412 2.1562,4.5352 C2.1562,4.0652 2.2472,3.5992 2.4292,3.1332 C2.6112,2.6672 2.8962,2.2392 3.2852,1.8512 C3.6732,1.4622 4.1702,1.1522 4.7772,0.9212 C5.3822,0.6902 6.0912,0.5742 6.9042,0.5742 C8.3812,0.5742 9.8372,0.9252 11.2732,1.6252" id="Fill-4"></path>
                        <polygon id="Fill-6" points="24.1755 0.7746 23.8075 3.3696 17.9145 3.3696 17.4635 6.5306 22.5785 6.5306 22.2105 9.1356 17.0535 9.1356 16.5595 12.7286 23.7235 12.7286 23.3565 15.3336 12.4425 15.3336 14.5535 0.7746"></polygon>
                        <path d="M38.7048,1.09 L38.0858,4.366 C37.6378,4.22 37.2058,4.103 36.7928,4.015 C36.3798,3.928 35.9838,3.862 35.6058,3.82 C35.2278,3.778 34.8708,3.758 34.5348,3.758 C33.8348,3.758 33.1638,3.871 32.5228,4.099 C31.8828,4.326 31.3098,4.659 30.8068,5.097 C30.3018,5.534 29.9108,6.053 29.6348,6.652 C29.3578,7.25 29.2198,7.9 29.2198,8.6 C29.2198,9.301 29.3738,9.929 29.6828,10.486 C29.9898,11.042 30.4188,11.477 30.9688,11.788 C31.5178,12.1 32.1258,12.255 32.7908,12.255 C34.4998,12.255 36.2648,11.611 38.0858,10.322 L37.4238,14.346 C37.0798,14.486 36.6908,14.637 36.2578,14.797 C35.8228,14.958 35.4558,15.083 35.1548,15.17 C34.8528,15.258 34.4738,15.338 34.0148,15.412 C33.5568,15.486 33.0858,15.523 32.6018,15.523 C31.6288,15.523 30.7098,15.386 29.8448,15.112 C28.9788,14.84 28.2008,14.416 27.5078,13.842 C26.8138,13.268 26.2778,12.566 25.8998,11.736 C25.5218,10.905 25.3338,9.962 25.3338,8.904 C25.3338,8.043 25.4778,7.146 25.7688,6.21 C26.0588,5.276 26.5498,4.379 27.2398,3.522 C27.9298,2.663 28.8908,1.958 30.1228,1.404 C31.3558,0.852 32.8608,0.574 34.6408,0.574 C35.3608,0.574 35.9978,0.615 36.5518,0.695 C37.1038,0.777 37.8228,0.907 38.7048,1.09" id="Fill-8"></path>
                        <path d="M56.1609,0.7746 L54.8689,9.6706 C54.6859,10.9606 54.2679,12.0426 53.6139,12.9176 C52.9589,13.7936 52.1169,14.4456 51.0879,14.8766 C50.0579,15.3066 48.8889,15.5226 47.5789,15.5226 C45.8359,15.5226 44.4409,15.2286 43.3979,14.6396 C42.3539,14.0516 41.6249,13.3476 41.2079,12.5286 C40.7919,11.7096 40.5829,10.9206 40.5829,10.1656 C40.5829,9.5426 40.6499,8.8206 40.7829,8.0016 L41.8759,0.7746 L45.5729,0.7746 L44.4589,8.3786 C44.3959,8.7576 44.3649,9.1256 44.3649,9.4826 C44.3649,10.2736 44.5929,10.9336 45.0479,11.4626 C45.5029,11.9916 46.3399,12.2546 47.5569,12.2546 C48.1739,12.2546 48.7269,12.1596 49.2179,11.9666 C49.7079,11.7746 50.1279,11.4486 50.4779,10.9896 C50.8279,10.5316 51.0659,9.9136 51.1919,9.1356 L52.4639,0.7746 L56.1609,0.7746 Z" id="Fill-10"></path>
                        <path d="M66.1003,4.9865 C66.1003,4.4255 65.8963,3.9375 65.4863,3.5215 C65.0773,3.1045 64.2473,2.8965 63.0013,2.8965 L62.4243,2.8965 L61.8153,7.0975 L63.2863,7.0975 C64.3223,7.0975 65.0503,6.8795 65.4703,6.4415 C65.8903,6.0045 66.1003,5.5185 66.1003,4.9865 L66.1003,4.9865 Z M70.4703,15.3335 L66.4053,15.3335 L64.9553,12.2975 C64.5293,11.3805 64.1583,10.6925 63.8423,10.2335 C63.5273,9.7745 63.2503,9.4915 63.0123,9.3825 C62.7743,9.2745 62.4553,9.2195 62.0563,9.2195 L61.4993,9.2195 L60.5753,15.3335 L56.8883,15.3335 L58.9993,0.7745 L64.6823,0.7745 C66.7483,0.7745 68.1503,1.2295 68.8893,2.1395 C69.6283,3.0495 69.9973,4.0345 69.9973,5.0915 C69.9973,6.2055 69.6913,7.0715 69.0793,7.6915 C68.4653,8.3115 67.6103,8.6945 66.5103,8.8415 C67.0703,9.1645 67.5033,9.5425 67.8073,9.9755 C68.1123,10.4105 68.4743,11.0865 68.8953,12.0035 L70.4703,15.3335 Z" id="Fill-12"></path>
                        <polygon id="Fill-14" points="77.8337 0.7746 75.6587 15.3336 71.9307 15.3336 74.0837 0.7746"></polygon>
                        <polygon id="Fill-16" points="92.9968 0.7746 92.5658 3.7366 87.8598 3.7366 86.1158 15.3336 82.4188 15.3336 84.1308 3.7366 79.4458 3.7366 79.8978 0.7746"></polygon>
                        <polygon id="Fill-18" points="106.9997 0.7746 101.0337 9.7456 100.1927 15.3336 96.4747 15.3336 97.3367 9.6086 94.0487 0.7746 97.7457 0.7746 99.4887 6.3836 102.9777 0.7746"></polygon>
                    </g>
                </g>
            </g>
        </g>
    </g>
</svg>